<?xml version="1.0" encoding="UTF-8" standalone="no"?>
<!-- Created with Inkscape (http://www.inkscape.org/) -->

<svg
   xmlns:dc="http://purl.org/dc/elements/1.1/"
   xmlns:cc="http://creativecommons.org/ns#"
   xmlns:rdf="http://www.w3.org/1999/02/22-rdf-syntax-ns#"
   xmlns:svg="http://www.w3.org/2000/svg"
   xmlns="http://www.w3.org/2000/svg"
   xmlns:sodipodi="http://sodipodi.sourceforge.net/DTD/sodipodi-0.dtd"
   xmlns:inkscape="http://www.inkscape.org/namespaces/inkscape"
   width="188.36668mm"
   height="69.412941mm"
   viewBox="0 0 188.36668 69.412941"
   version="1.1"
   id="svg8"
   inkscape:version="0.92.4 (f8dce91, 2019-08-02)"
   sodipodi:docname="ciaexpdancawb_logotipo.svg">
  <defs
     id="defs2" />
  <sodipodi:namedview
     id="base"
     pagecolor="#ffffff"
     bordercolor="#666666"
     borderopacity="1.0"
     inkscape:pageopacity="0.0"
     inkscape:pageshadow="2"
     inkscape:zoom="0.92891376"
     inkscape:cx="343.93515"
     inkscape:cy="153.79737"
     inkscape:document-units="mm"
     inkscape:current-layer="layer1"
     showgrid="false"
     inkscape:window-width="1317"
     inkscape:window-height="713"
     inkscape:window-x="49"
     inkscape:window-y="27"
     inkscape:window-maximized="1" />
  <metadata
     id="metadata5">
    <rdf:RDF>
      <cc:Work
         rdf:about="">
        <dc:format>image/svg+xml</dc:format>
        <dc:type
           rdf:resource="http://purl.org/dc/dcmitype/StillImage" />
        <dc:title></dc:title>
      </cc:Work>
    </rdf:RDF>
  </metadata>
  <g
     inkscape:label="Camada 1"
     inkscape:groupmode="layer"
     id="layer1"
     transform="translate(-7.2899748,-5.8449663)">
    <path
       style="fill:#000000;stroke-width:0.24586755"
       d="m 92.605996,75.079055 c -1.41988,-0.0943 -2.74757,-0.23642 -2.95041,-0.31578 -0.20284,-0.0794 -1.17112,-0.19939 -2.15173,-0.26673 -0.98062,-0.0673 -1.90848,-0.20003 -2.06191,-0.29486 -0.15344,-0.0948 -0.95541,-0.25721 -1.78215,-0.36085 -2.90123,-0.36369 -5.19341,-0.78637 -5.42475,-1.00032 -0.12847,-0.11881 -0.60019,-0.21602 -1.04828,-0.21602 -0.44808,0 -1.006817,-0.10617 -1.24163,-0.23593 -0.404145,-0.22334 -1.6603,-0.53923 -3.869078,-0.97298 -0.540909,-0.10623 -1.260071,-0.30871 -1.598139,-0.44998 -0.338068,-0.14126 -1.057231,-0.37798 -1.598139,-0.52604 -0.828001,-0.22664 -4.401819,-1.29659 -5.486137,-1.64247 -0.177604,-0.0567 -0.264526,-0.19748 -0.193158,-0.31296 0.07142,-0.11556 0.658765,-0.11115 1.306388,0.01 0.647145,0.12087 1.801752,0.31184 2.56579,0.42438 0.764041,0.11255 1.521923,0.28668 1.684183,0.38696 0.16226,0.10028 0.920142,0.27172 1.684183,0.38096 0.764038,0.10925 2.440245,0.38117 3.724903,0.60427 2.701804,0.46921 4.806724,0.72236 9.097104,1.09406 1.69034,0.14645 3.34994,0.35731 3.68801,0.46859 0.92894,0.30576 14.190284,0.35711 15.877344,0.0615 0.80098,-0.14036 2.22266,-0.32019 3.15928,-0.39962 0.93662,-0.0794 1.82125,-0.21754 1.96585,-0.30691 0.14459,-0.0894 0.76127,-0.24164 1.37039,-0.3384 1.7802,-0.28279 3.44324,-0.7292 3.44324,-0.92429 0,-0.0993 -0.74682,-0.30212 -1.65961,-0.4507 -3.80898,-0.61999 -5.47055,-1.13273 -5.47055,-1.68817 0,-0.40053 1.2721,-1.09733 2.45868,-1.34675 0.47329,-0.0995 1.46905,-0.3641 2.2128,-0.58802 0.74375,-0.22393 1.79484,-0.50246 2.33574,-0.61896 0.54091,-0.11651 1.70264,-0.39125 2.58161,-0.61054 1.65018,-0.41168 3.15864,-0.70972 5.28616,-1.04443 l 1.22933,-0.1934 0.45842,-1.41115 c 0.4496,-1.38399 0.44916,-1.44788 -0.0227,-3.31921 -0.41047,-1.62788 -0.59547,-1.98027 -1.25983,-2.3998 -0.66224,-0.41818 -0.75988,-0.60291 -0.65275,-1.23505 0.10102,-0.59613 -0.0727,-1.00993 -0.87727,-2.08987 -1.36818,-1.83639 -3.10392,-3.605791 -4.27515,-4.358071 l -0.97434,-0.62581 -3.69714,0.1996 c -2.03343,0.10978 -5.30143,0.22606 -7.26223,0.25838 -4.910484,0.081 -7.493904,0.26606 -8.078284,0.57881 -0.27211,0.14563 -1.07245,0.26479 -1.77852,0.26479 -0.96607,0 -1.47204,0.14257 -2.04457,0.57612 -1.3527,1.024331 -4.43797,1.049651 -5.54751,0.0455 -1.45013,-1.31235 1.71538,-2.13651 9.5105,-2.47613 1.78672,-0.0779 3.61156,-0.24564 4.05519,-0.37287 0.44363,-0.12723 2.909504,-0.23229 5.479714,-0.23347 2.57021,-0.001 5.24696,-0.0711 5.94835,-0.15534 1.26439,-0.15189 1.27208,-0.15801 0.90443,-0.71911 -0.3512,-0.536 -2.59115,-2.38362 -3.54967,-2.92793 -0.24435,-0.13876 -1.47439,-0.9054 -2.73342,-1.70364 -2.5894,-1.64171 -3.1706,-1.97943 -6.100084,-3.54458 -3.89316,-2.08003 -7.03448,-3.54556 -11.92458,-5.56322 -0.54091,-0.22318 -1.17559,-0.51106 -1.4104,-0.63974 -0.23481,-0.12867 -0.5774,-0.23396 -0.7613,-0.23396 -0.31119,0 -1.44084,-0.46359 -2.43498,-0.99928 -0.23481,-0.12653 -0.56439,-0.23005 -0.73239,-0.23005 -0.31321,0 -3.46461,-1.10795 -4.12683,-1.45088 -0.20284,-0.10504 -1.03264,-0.38998 -1.844007,-0.63319 -0.811363,-0.24321 -2.249688,-0.69014 -3.196278,-0.99318 -1.627808,-0.52111 -3.767481,-1.15283 -5.409087,-1.59697 -0.405681,-0.10976 -1.290804,-0.37587 -1.96694,-0.59137 -0.676136,-0.21549 -1.471749,-0.39125 -1.768029,-0.39058 -0.29628,6.6e-4 -0.599848,-0.0977 -0.674596,-0.21868 -0.07475,-0.12094 -0.551496,-0.28015 -1.059446,-0.35379 -1.450553,-0.21029 -3.699525,-0.76807 -3.89828,-0.96682 -0.09931,-0.0993 -0.421028,-0.18057 -0.714926,-0.18057 -0.2939,0 -1.409524,-0.22932 -2.479166,-0.50961 -1.069642,-0.28028 -2.498005,-0.60902 -3.174141,-0.73053 -0.676135,-0.1215 -2.05914,-0.39673 -3.073344,-0.61161 -1.014204,-0.21488 -2.490552,-0.49454 -3.280773,-0.62147 -0.790221,-0.12692 -1.53253,-0.28995 -1.649575,-0.36229 -0.117045,-0.0723 -0.964145,-0.24266 -1.882446,-0.37849 -0.9183,-0.13584 -2.222839,-0.33946 -2.898975,-0.4525 -0.676136,-0.11304 -2.114461,-0.33482 -3.196278,-0.49286 -1.081817,-0.15803 -2.438751,-0.39323 -3.015406,-0.522661 -0.576655,-0.129431 -1.517099,-0.238034 -2.089874,-0.24134 -0.572776,-0.0033 -1.539291,-0.121273 -2.147813,-0.262149 -1.243306,-0.287832 -4.345667,-0.629575 -8.728299,-0.961471 -1.622726,-0.122889 -4.001494,-0.336058 -5.286152,-0.47371 -1.284658,-0.137652 -3.414486,-0.253274 -4.7329512,-0.256938 -1.318465,-0.0037 -2.397209,-0.10251 -2.397209,-0.219658 0,-0.809814 17.7391952,-0.476099 26.4307632,0.497223 1.352272,0.151434 3.399119,0.371405 4.54855,0.488825 4.055986,0.414339 8.913122,1.144211 12.908047,1.939669 0.811363,0.16155 2.028408,0.37989 2.704543,0.48518 2.334279,0.36352 4.064791,0.71189 4.320127,0.8697 0.140907,0.0871 0.830806,0.24964 1.533112,0.36124 0.702306,0.1116 1.996083,0.38232 2.87506,0.6016 1.65236,0.41221 2.726369,0.66056 4.736466,1.09526 0.644262,0.13932 1.383809,0.367 1.643441,0.50595 0.259631,0.13895 0.804722,0.25264 1.211313,0.25264 0.406591,0 0.807636,0.11064 0.891211,0.24587 0.08357,0.13523 0.354,0.24587 0.600944,0.24587 0.469514,0 1.884285,0.40383 4.849444,1.38423 0.9693,0.32049 1.9862,0.58271 2.25976,0.58271 0.27357,0 0.55789,0.0979 0.63183,0.21752 0.0739,0.11963 0.44005,0.27396 0.81358,0.34295 0.37353,0.069 1.61959,0.4823 2.76902,0.91848 1.14943,0.43618 2.36647,0.8499 2.70454,0.91938 0.33807,0.0695 0.72531,0.20307 0.86054,0.29687 0.13523,0.0938 0.79907,0.3653 1.4752,0.60335 1.96853,0.69307 6.12537,2.41316 6.38027,2.64014 0.12847,0.1144 0.3751,0.20799 0.54808,0.20799 0.30774,0 7.353824,3.40235 9.298994,4.49022 2.84568,1.5915 5.32012,3.10147 6.62608,4.04343 1.56465,1.12855 2.27183,1.35123 1.9846,0.62492 -0.0936,-0.23665 -0.22489,-0.81751 -0.29178,-1.2908 -0.0669,-0.4733 -0.2151,-1.08182 -0.32936,-1.35228 -0.11426,-0.27045 -0.26538,-0.76833 -0.33583,-1.1064 -0.0704,-0.33807 -0.31238,-1.22319 -0.53762,-1.96694 -0.22525,-0.74375 -0.46773,-1.68419 -0.53885,-2.08987 -0.0711,-0.40569 -0.28009,-0.95585 -0.46437,-1.22258 -0.18428,-0.26674 -0.33505,-0.68314 -0.33505,-0.92534 0,-0.2422 -0.10083,-0.63248 -0.22407,-0.8673 -0.12324,-0.23481 -0.40844,-0.98013 -0.63377,-1.65627 -0.22533,-0.67613 -0.4985,-1.45062 -0.60703,-1.72107 -0.10854,-0.27045 -0.38949,-0.98962 -0.62434,-1.59814 -0.23486,-0.60852 -0.69067,-1.66119 -1.01291,-2.33927 -0.6523,-1.37259 -0.69912,-1.59461 -0.33627,-1.59461 0.25421,0 3.60512,2.32029 4.05305,2.80648 0.13523,0.14678 0.68843,0.59269 1.22934,0.99093 1.16219,0.85564 5.07471,4.13628 6.13888,5.14743 4.51546,4.29052 8.01458,7.87957 9.72859,9.97862 1.7555,2.14987 1.89167,2.28141 2.06738,1.99709 0.0888,-0.14359 0.0384,-0.67746 -0.11179,-1.18637 -1.08329,-3.66981 -1.7547,-13.581 -1.25177,-18.47839 0.36377,-3.54232 0.71874,-5.727241 1.15981,-7.138943 0.18709,-0.598804 0.34017,-1.378819 0.34017,-1.733366 0,-0.354547 0.0879,-0.749739 0.19537,-0.878205 0.10745,-0.128466 0.3969,-0.897416 0.64323,-1.708779 0.24632,-0.8113632 0.53869,-1.6964862 0.64971,-1.9669412 0.11102,-0.270454 0.27159,-0.740676 0.35681,-1.044937 0.0852,-0.304261 0.25814,-0.553202 0.38426,-0.553202 0.12611,0 0.22929,-0.214751 0.22929,-0.477224 0,-0.262474 0.11064,-0.545605 0.24587,-0.62918 0.30548,-0.188796 0.32735,0.675949 0.0252,0.995764 -0.12138,0.128466 -0.27899,0.676136 -0.35024,1.217044 -0.0712,0.540909 -0.31852,2.0898742 -0.54948,3.4421462 -0.53879,3.154638 -0.77937,15.783003 -0.37002,19.423533 0.51391,4.57046 1.70459,11.36002 2.55916,14.59296 0.35081,1.32718 1.08546,1.75724 3.00184,1.75724 0.76475,0 2.01495,0.15226 2.77822,0.33837 0.76327,0.1861 2.21757,0.4751 3.23177,0.64221 2.06423,0.34013 4.51082,1.08299 5.34762,1.6237 1.01652,0.656841 0.71922,1.413961 -0.86054,2.191501 -0.77755,0.3827 -1.80098,0.77985 -2.27427,0.88254 -0.4733,0.10269 -1.63502,0.37099 -2.58161,0.59623 -0.94659,0.22524 -2.6062,0.49581 -3.68802,0.60127 -1.08181,0.10546 -2.18822,0.27176 -2.45867,0.36956 -0.27046,0.0978 -0.6546,0.22847 -0.85365,0.29039 -0.82482,0.25656 0.41286,0.57042 2.26386,0.57409 1.04607,0.002 2.37375,0.10812 2.95041,0.23566 1.2297,0.27199 4.0745,0.72158 6.33462,1.00113 0.87897,0.10872 2.40893,0.33932 3.39991,0.51244 1.46025,0.2551 2.1127,0.2555 3.44214,0.002 0.90221,-0.17197 1.9723,-0.36155 2.37798,-0.42129 0.40568,-0.0597 1.56741,-0.2659 2.58161,-0.45815 6.3656,-1.20661 16.01299,-1.38907 25.69315,-0.48591 2.68441,0.25046 6.92454,0.88505 7.6219,1.14072 0.40568,0.14874 1.40144,0.33715 2.2128,0.41869 0.8198,0.0824 1.30283,0.21955 1.0872,0.30872 -0.2134,0.0883 -1.37512,0.0487 -2.5816,-0.088 -4.3289,-0.49025 -22.40151,0.37454 -26.73099,1.2791 -0.64899,0.13559 -1.61169,0.24653 -2.13935,0.24653 -0.89337,0 -3.62495,0.5927 -3.8725,0.84025 -0.0606,0.0606 0.45205,0.39506 1.1392,0.74326 1.53258,0.77662 2.10285,1.54509 1.77889,2.39715 -0.29826,0.7845 -1.03818,1.24831 -2.85643,1.79053 -2.72157,0.8116 -3.68499,1.12291 -4.17975,1.35062 -0.27045,0.12447 -0.93429,0.27917 -1.4752,0.34378 -0.91325,0.10908 -1.69994,0.25599 -4.91735,0.91829 -1.53406,0.31578 -4.6581,0.70191 -7.86777,0.97246 -1.35227,0.11399 -3.28847,0.32322 -4.30268,0.46497 -2.71301,0.37918 -7.85745,0.7282 -10.91258,0.74036 -2.84973,0.0113 -4.23272,0.29579 -5.46415,1.12388 -3.34411,2.2488 -9.20627,3.86138 -15.58605,4.28745 -3.63086,0.2425 -9.416414,0.24439 -13.030994,0.004 z m 37.740684,-7.86089 c 1.89318,-0.12588 4.21663,-0.34033 5.16322,-0.47657 0.94659,-0.13623 2.30034,-0.25132 3.00835,-0.25574 0.708,-0.004 1.75908,-0.11383 2.33574,-0.24312 1.16798,-0.26186 4.08653,-0.80331 6.70342,-1.24361 0.94659,-0.15927 2.08441,-0.44492 2.52848,-0.63479 0.44408,-0.18986 1.1605,-0.3452 1.59206,-0.3452 0.66404,0 2.87805,-0.70166 4.73069,-1.49923 0.27046,-0.11643 0.796,-0.32188 1.16787,-0.45655 0.37188,-0.13467 0.67614,-0.37718 0.67614,-0.53892 0,-0.55559 -0.81458,-1.19331 -1.52425,-1.19331 -0.63744,0 -1.3464,0.13867 -5.05624,0.98901 -0.57665,0.13218 -1.28796,0.24032 -1.58068,0.24032 -0.52331,0 -0.94365,0.11551 -3.64048,1.00038 -0.74374,0.24404 -2.12032,0.56829 -3.05905,0.72055 -1.67084,0.27101 -2.8225,0.55361 -5.54631,1.361 -0.74375,0.22046 -1.62887,0.45535 -1.96694,0.52198 -0.33807,0.0666 -0.8471,0.23331 -1.13118,0.3704 -0.28408,0.13709 -0.78196,0.20383 -1.1064,0.14831 l -0.5899,-0.10095 0.61467,-0.29238 c 0.33807,-0.1608 1.05723,-0.57099 1.59814,-0.91152 0.54091,-0.34053 1.29611,-0.74034 1.67823,-0.88847 0.47565,-0.18437 0.61508,-0.349 0.4421,-0.52199 -0.17298,-0.17298 -0.93491,-0.16157 -2.41584,0.0362 -1.18974,0.15886 -3.2806,0.39403 -4.64635,0.52262 -1.36575,0.12859 -2.66348,0.30299 -2.88386,0.38755 -0.22037,0.0846 -0.6519,0.66834 -0.95896,1.29727 -0.30706,0.62893 -0.69659,1.28972 -0.86562,1.46841 -0.60545,0.64005 -0.24236,1.1335 0.67313,0.9148 0.33972,-0.0811 2.16664,-0.25053 4.05982,-0.37641 z m -10.80177,-0.6466 c 1.76227,-1.34415 0.68077,-1.6931 -2.56886,-0.82886 -3.15874,0.84006 -3.19018,1.46242 -0.0742,1.46894 1.56506,0.003 1.9087,-0.0799 2.64308,-0.64008 z m 11.18026,-4.77042 c 0.24735,-0.13238 1.09317,-0.24339 1.87962,-0.2467 0.78645,-0.003 1.87246,-0.10666 2.41337,-0.22969 0.54091,-0.12302 2.58776,-0.35252 4.54855,-0.50999 2.63099,-0.21129 4.01602,-0.44775 5.28616,-0.90246 0.94659,-0.33889 2.05299,-0.69208 2.45867,-0.78489 0.40568,-0.0928 0.7376,-0.32516 0.7376,-0.51636 0,-0.45457 -0.87735,-0.68386 -2.73245,-0.7141 -0.82671,-0.0135 -2.09907,-0.14134 -2.82747,-0.28412 -1.17664,-0.23066 -4.80373,-0.47913 -12.96765,-0.88836 -1.40041,-0.0702 -2.63677,-0.0342 -2.74747,0.0799 -0.1107,0.11415 -0.0943,0.70542 0.0365,1.31394 0.1308,0.60852 0.29675,1.6596 0.36877,2.33574 0.20916,1.9634 0.17707,1.93083 1.72297,1.74914 0.7552,-0.0888 1.57546,-0.26968 1.8228,-0.40205 z m -1.60783,-8.49578 c 3.82847,-0.40006 6.03573,-0.81274 10.44937,-1.95365 2.19368,-0.56706 2.70455,-0.78984 2.70455,-1.179361 0,-0.40157 -1.02357,-0.90527 -1.83957,-0.90527 -0.32291,0 -0.89856,-0.12334 -1.27924,-0.27408 -1.58893,-0.62919 -17.77994,-1.25927 -17.77994,-0.69192 0,0.28 1.10668,1.90897 1.49146,2.195331 0.0909,0.0676 0.53371,0.73146 0.98413,1.47521 0.45043,0.74375 0.9257,1.42538 1.05617,1.51473 0.23649,0.16196 1.41592,0.1113 4.21307,-0.18099 z m -0.74378,-6.732831 c 0.13081,-0.21166 -0.15478,-0.88655 -0.6752,-1.59562 -0.10431,-0.14211 -0.82347,-1.16521 -1.59814,-2.27357 -2.1821,-3.12201 -4.26462,-5.5801 -7.56213,-8.92592 -4.87772,-4.94919 -6.2405,-6.25082 -6.38899,-6.10233 -0.0769,0.0769 0.29472,0.96475 0.82576,1.97307 0.53104,1.00831 1.07588,2.04563 1.21076,2.30514 0.25474,0.49015 0.44309,0.94479 1.16314,2.80759 0.23522,0.60852 0.51814,1.32769 0.62872,1.59814 0.57464,1.40541 2.19876,6.54904 2.19876,6.96351 0,0.26358 0.16527,0.79615 0.36728,1.18348 0.20201,0.38733 0.36797,0.89041 0.3688,1.11794 0.002,0.59719 0.66198,0.73274 4.5327,0.93126 1.90273,0.0976 3.75724,0.19447 4.12114,0.2153 0.36389,0.0208 0.72722,-0.0683 0.8074,-0.19799 z m -23.34177,-12.43807 c -2.90339,-0.99814 -4.32522,-4.7699 -2.2704,-6.0228 0.99882,-0.60902 1.42338,-0.60282 2.70099,0.0395 1.36593,0.68667 1.85339,1.13823 2.41358,2.23583 1.27105,2.4904 -0.33716,4.60939 -2.84417,3.74752 z"
       id="path187"
       inkscape:connector-curvature="0" />
  </g>
</svg>
